<svg xmlns="http://www.w3.org/2000/svg" version="1.1" xmlns:xlink="http://www.w3.org/1999/xlink" width="512" height="512" x="0" y="0" viewBox="0 0 24 24" style="enable-background:new 0 0 512 512" xml:space="preserve" class=""><g><path d="M20 8c2.206 0 4-1.794 4-4s-1.794-4-4-4-4 1.794-4 4 1.794 4 4 4Zm0-7c1.654 0 3 1.346 3 3s-1.346 3-3 3-3-1.346-3-3 1.346-3 3-3Zm1.987 11.726-.669-2.876a5.94 5.94 0 0 1-.996.134l.69 2.968.949 4.085c.104.482-.008.982-.304 1.369a1.496 1.496 0 0 1-1.185.594H3.527a1.49 1.49 0 0 1-1.183-.594 1.673 1.673 0 0 1-.309-1.36l2.231-9.598C5.076 3.651 8.256 1 12 1c.901 0 1.768.157 2.578.443.146-.309.315-.604.509-.881A8.746 8.746 0 0 0 12 0C7.78 0 4.197 2.977 3.291 7.23L1.06 16.828c-.164.77.015 1.566.492 2.188a2.485 2.485 0 0 0 1.976.983h3.574c.465 2.279 2.484 4 4.899 4s4.434-1.721 4.899-4h3.575c.772 0 1.492-.358 1.978-.984a2.681 2.681 0 0 0 .487-2.196l-.951-4.094ZM12 23c-1.858 0-3.411-1.279-3.858-3h7.716c-.447 1.721-1.999 3-3.858 3Z" fill="#ffffff" opacity="1" data-original="#000000" class=""></path></g></svg>