<svg xmlns="http://www.w3.org/2000/svg" version="1.1" xmlns:xlink="http://www.w3.org/1999/xlink" width="512" height="512" x="0" y="0" viewBox="0 0 24 24" style="enable-background:new 0 0 512 512" xml:space="preserve" class=""><g><path d="m23.391 16.207-2.413-9.39C19.864 2.803 16.172 0 12 0 7.598 0 3.855 3.002 2.903 7.29L.692 16.359a2.979 2.979 0 0 0 .59 2.518A2.983 2.983 0 0 0 3.622 20h3.479c.465 2.279 2.484 4 4.899 4s4.434-1.721 4.899-4h3.599c.946 0 1.817-.432 2.389-1.185a2.966 2.966 0 0 0 .504-2.608ZM12 23c-1.858 0-3.411-1.279-3.858-3h7.716c-.447 1.721-2 3-3.858 3Zm10.091-4.79c-.381.502-.962.79-1.593.79H3.623c-.61 0-1.179-.272-1.56-.748a1.977 1.977 0 0 1-.396-1.666l2.21-9.069A8.272 8.272 0 0 1 12 1c3.724 0 7.02 2.502 8.012 6.075l2.413 9.39a1.984 1.984 0 0 1-.334 1.745Z" fill="#ffffff" opacity="1" data-original="#000000" class=""></path></g></svg>