<?xml version="1.0" encoding="UTF-8"?>
<svg xmlns="http://www.w3.org/2000/svg" id="Layer_1" data-name="Layer 1" viewBox="0 0 24 24">
  <path d="m23.518,8.661c0-.047,0-.094-.014-.141-.009-.03-.029-.052-.043-.079C21.942,3.557,17.378,0,12,0,5.383,0,0,5.383,0,12c0,1.16.174,2.278.482,3.339,0,.047,0,.093.014.14.006.021.026.03.035.049,1.511,4.9,6.08,8.471,11.469,8.471,6.617,0,12-5.383,12-12,0-1.159-.174-2.277-.482-3.339Zm-11.518,10.339c-3.86,0-7-3.141-7-7s3.14-7,7-7,7,3.141,7,7-3.14,7-7,7ZM1,12c0-.911.124-1.792.334-2.64l2.88.833c-.135.582-.214,1.185-.214,1.807,0,.626.08,1.232.216,1.817l-2.868.878c-.219-.864-.348-1.764-.348-2.695Zm18.784-1.817l2.868-.879c.219.864.348,1.764.348,2.695s-.129,1.83-.348,2.694l-2.869-.877c.137-.585.216-1.191.216-1.817s-.08-1.232-.216-1.817Zm2.579-1.837l-2.869.879c-.81-2.181-2.542-3.911-4.723-4.721l.861-2.876c3.138,1.102,5.623,3.583,6.732,6.718ZM14.673,1.342l-.86,2.873c-.584-.136-1.189-.215-1.813-.215s-1.231.079-1.816.216l-.872-2.87c.862-.218,1.759-.346,2.688-.346.923,0,1.816.127,2.673.342Zm-6.319.292l.872,2.872c-2.184.811-3.916,2.545-4.724,4.73l-2.886-.834c1.097-3.156,3.589-5.656,6.738-6.767ZM1.637,15.654l2.87-.878c.81,2.178,2.538,3.907,4.716,4.717l-.895,2.864c-3.118-1.109-5.587-3.582-6.691-6.703Zm7.647,6.993l.895-2.864c.586.137,1.194.217,1.821.217s1.235-.08,1.821-.217l.893,2.864c-.87.222-1.776.353-2.714.353s-1.845-.131-2.716-.353Zm6.386-.29l-.893-2.864c2.178-.81,3.907-2.539,4.716-4.718l2.87.877c-1.104,3.122-3.573,5.596-6.693,6.705Zm-2.649-13.825c-.483-.676-1.561-.676-2.044,0l-1.577,2.208c-.538.754-.538,1.766,0,2.52l1.577,2.208c.242.338.614.532,1.022.532s.78-.194,1.022-.532l1.577-2.208c.538-.754.538-1.766,0-2.52l-1.577-2.208Zm.764,4.146l-1.577,2.208c-.142.199-.275.199-.417,0l-1.577-2.208c-.285-.398-.285-.957,0-1.355l1.577-2.208c.071-.1.161-.114.208-.114s.138.015.208.114l1.577,2.208c.285.398.285.957,0,1.355Z"/>
</svg>
