<svg xmlns="http://www.w3.org/2000/svg" version="1.1" xmlns:xlink="http://www.w3.org/1999/xlink" width="512" height="512" x="0" y="0" viewBox="0 0 24 24" style="enable-background:new 0 0 512 512" xml:space="preserve" class=""><g><path d="M24 1.5c0-.827-.673-1.5-1.5-1.5S21 .673 21 1.5c0 .651.419 1.201 1 1.408V9.5c0 .827-.673 1.5-1.5 1.5H19V9.5C19 4.262 14.738 0 9.5 0S0 4.262 0 9.5V24h19V12h1.5c1.379 0 2.5-1.122 2.5-2.5V2.908c.581-.207 1-.757 1-1.408ZM12 8v7H7V8h5Zm1 0h4.859c.087.488.141.987.141 1.5V15h-5V8ZM9.5 1c3.817 0 7.053 2.529 8.124 6H1.376C2.447 3.529 5.683 1 9.5 1ZM1.141 8H6v7H1V9.5c0-.513.053-1.012.141-1.5ZM1 23v-7h17v7H1Zm7-13V9h3l-.036.879-1.692 4.192-.928-.374 1.493-3.698H8Zm9-1-.036.879-1.692 4.192-.928-.374 1.493-3.698H14v-1h3ZM3.837 10H2V9h3l-.036.879-1.692 4.192-.928-.374 1.493-3.698Z" fill="#ffffff" opacity="1" data-original="#000000" class=""></path></g></svg>