<svg xmlns="http://www.w3.org/2000/svg" version="1.1" xmlns:xlink="http://www.w3.org/1999/xlink" width="512" height="512" x="0" y="0" viewBox="0 0 24 24" style="enable-background:new 0 0 512 512" xml:space="preserve" class=""><g><path d="M21.5 0h-19A2.503 2.503 0 0 0 0 2.5V24h7v-.5c0-4.256-2.254-6.785-3.475-7.843 2.027-.85 6.904-3.576 8.475-10.496 1.571 6.919 6.448 9.646 8.475 10.496C19.254 16.715 17 19.244 17 23.5v.5h7V2.5C24 1.121 22.878 0 21.5 0ZM5.988 23H1v-7h1.346c.599.417 3.438 2.618 3.642 7Zm-3.557-8H.999V2.5c0-.827.673-1.5 1.5-1.5h2.975c-.126 2.651-1.212 4.729-2.475 5.933v1.244C4.698 6.868 6.32 4.42 6.47 1.001h2.012c-.179 5.074-3.023 8.183-5.483 9.62v1.131c2.789-1.473 6.29-4.858 6.482-10.75h1.996c-.241 11.131-8.203 13.756-9.046 14ZM12.522 1h1.996C14.71 6.892 18.21 10.278 21 11.75v-1.131c-2.46-1.437-5.304-4.545-5.483-9.62h2.012c.15 3.42 1.772 5.867 3.471 7.176V6.931C19.736 5.727 18.651 3.65 18.525.998H21.5c.827 0 1.5.673 1.5 1.5v12.5h-1.432c-.843-.244-8.805-2.869-9.046-14Zm5.489 22c.206-4.429 3.105-6.631 3.662-7.014l1.326.01V23h-4.988Z" fill="#ffffff" opacity="1" data-original="#000000" class=""></path></g></svg>